<svg xmlns="http://www.w3.org/2000/svg" viewBox="0 0 64 64" width="64" height="64">
  <path d="M12 20c0-6 5-11 11-11 4.5 0 8.5 2.5 10.5 6.5 2-4 6-6.5 10.5-6.5 6 0 11 5 11 11 0 11-13 22-21.5 27.5a1 1 0 0 1-1 0C25 42 12 31 12 20z" fill="rgba(129, 140, 248, 0.1)" stroke="#818cf8" stroke-width="2.5" />
  <rect x="22" y="24" width="3" height="8" rx="1.5" fill="#a5b4fc" />
  <rect x="27" y="18" width="3" height="18" rx="1.5" fill="#f8fafc" />
  <rect x="32" y="14" width="3" height="24" rx="1.5" fill="#a5b4fc" />
  <rect x="37" y="20" width="3" height="14" rx="1.5" fill="#f8fafc" />
  <rect x="42" y="26" width="3" height="6" rx="1.5" fill="#a5b4fc" />
</svg>
